<?xml version="1.0" standalone="no"?>
<!DOCTYPE svg PUBLIC "-//W3C//DTD SVG 20010904//EN"
 "http://www.w3.org/TR/2001/REC-SVG-20010904/DTD/svg10.dtd">
<svg version="1.0" xmlns="http://www.w3.org/2000/svg"
 width="256.000000pt" height="256.000000pt" viewBox="0 0 256.000000 256.000000"
 preserveAspectRatio="xMidYMid meet">
<metadata>
Created by potrace 1.11, written by Peter Selinger 2001-2013
</metadata>
<g transform="translate(0.000000,256.000000) scale(0.100000,-0.100000)"
fill="#000000" stroke="none">
<path d="M1109 2549 c-195 -27 -402 -110 -568 -226 -148 -104 -324 -309 -406
-473 -27 -53 -74 -170 -80 -200 -2 -8 -10 -42 -19 -75 -27 -107 -34 -177 -31
-320 4 -213 38 -350 131 -540 174 -354 512 -613 903 -692 117 -23 336 -25 457
-3 540 97 950 511 1049 1060 16 89 13 316 -5 415 -95 526 -495 936 -1018 1042
-86 17 -326 24 -413 12z"/>
</g>
</svg>
